<svg width="1420" height="966" viewBox="0 0 1420 966" fill="none" xmlns="http://www.w3.org/2000/svg">
<g clip-path="url(#clip0_2008_30)">
<path fill-rule="evenodd" clip-rule="evenodd" d="M378.188 718.293L378.133 718C377.875 716.538 377.284 713.3 376.611 709.611C376.61 709.606 376.609 709.602 376.609 709.597C376.239 707.572 375.844 705.411 375.467 703.333C374.267 697.467 372.8 688.533 372 683.6C371.333 678.533 370 673.333 369.333 672C368.533 670.667 368 667.467 368 665.067C367.867 662.667 367.067 657.067 366 652.667C364.933 648.267 364 640.933 364 636.533C364 624.8 370 606 375.733 599.333C377.333 597.467 378.667 595.6 378.667 595.067C378.667 593.2 404.267 565.333 406 565.333C406.267 565.333 410.267 561.333 414.933 556.533C431.867 538.667 449.6 521.467 454.133 518.4C456.533 516.667 458.667 514.933 458.667 514.267C458.667 513.733 459.6 513.333 460.667 513.333C461.733 513.333 463.733 512.8 465.067 512C470.133 509.2 482.933 506.667 492 506.667C500.667 506.667 515.6 509.733 517.333 511.867C517.733 512.267 520.133 513.733 522.667 515.067C530.533 519.067 540.8 528.267 561.333 550C567.6 556.667 576.933 565.867 582 570.667C597.6 585.067 614.667 608.133 614.667 614.533C614.667 616 615.333 617.333 616 617.333C617.733 617.333 617.733 649.6 616.133 655.2C615.333 657.467 614.133 663.867 613.333 669.333C610.667 686.8 609.6 692.533 608.267 698C607.467 700.933 606.133 706.933 605.333 711.333C604.728 714.665 603.663 719.602 602.777 723.713C602.493 725.032 602.227 726.265 602 727.333C600.933 731.733 599.733 738.667 599.2 742.667C598.667 746.667 597.867 750.533 597.333 751.333C596.667 752 596 756 595.6 760C594.8 770.4 591.867 789.467 590.667 792.667C590.133 794.133 589.067 798.933 588.267 803.333C587.6 807.733 586 815.467 584.8 820.667C580.8 837.867 578.4 849.867 577.333 860C576.667 865.467 575.6 872.533 574.933 875.733C573.467 882.267 574.267 883.2 578.8 880.667C580.533 879.6 583.067 878.267 584.4 877.867C585.6 877.467 586.667 876.533 586.667 876C586.667 875.333 588 874.4 589.6 873.867C593.067 872.8 604.4 865.6 615.333 857.6C632.4 845.067 751.067 728.4 763.067 712.267C767.6 706.133 771.333 700.667 771.333 700C771.333 699.333 772.4 697.467 773.733 696C774.933 694.533 776 692.533 776 691.6C776 690.8 776.933 688.8 778 687.467C779.067 686 780 683.2 780 681.2C780 679.2 780.533 677.2 781.2 676.8C781.867 676.267 782.8 672.933 783.333 669.333C783.867 665.733 784.8 662.4 785.467 661.867C786.133 661.467 786.667 659.6 786.667 657.733C786.667 655.867 787.467 652.533 788.533 650.267C789.6 647.867 790.8 643.867 791.2 641.333C792.133 635.2 795.2 620.267 797.867 608.667C800.933 595.867 803.733 583.333 805.333 575.333C809.333 554.8 810.8 547.867 812.533 540C813.6 535.2 815.2 528.133 816.133 524.267C818 516.133 816.8 514 813.2 518.667C811.97 520.232 809.801 522.83 807.954 525.043L807.951 525.047C807.597 525.471 807.255 525.881 806.933 526.267C805.082 528.364 801.747 532.403 799.252 535.425L798.667 536.133C796.133 539.333 789.2 546.933 783.333 553.067C777.467 559.2 772 565.467 771.2 567.067C770.267 568.667 768.933 574.533 768 580C767.067 585.467 765.867 590.533 765.333 591.333C764.8 592 763.867 595.2 763.333 598.267C762.8 601.467 761.867 604.267 761.2 604.8C760.533 605.2 760 606.667 760 608.267C760 611.6 756.933 621.467 751.333 636C748.8 642.667 737.067 666.933 735.867 668C735.467 668.4 734.133 671.067 732.8 674C730.667 678.4 726.267 685.467 720.933 692.667C720.702 692.956 719.992 693.95 718.991 695.353C718.989 695.355 718.988 695.357 718.987 695.358C717.682 697.185 715.884 699.705 714 702.267C705.867 713.733 703.467 716.4 691.6 728.133C685.867 733.733 678.267 739.867 674.667 741.867C668.267 745.333 668.133 745.333 662.533 743.067C652.667 739.2 636.267 730.133 634.267 727.467C632.533 725.2 634.267 706.933 637.333 695.333C638.933 689.467 640.533 683.2 640.933 681.333C641.167 679.697 642.118 676.319 642.978 673.265L642.979 673.262C642.985 673.241 642.99 673.22 642.996 673.2C643.111 672.792 643.224 672.391 643.333 672C643.705 670.674 644.224 668.883 644.79 666.93C645.647 663.975 646.611 660.649 647.333 658C648.667 653.6 650.133 649.467 650.8 648.8C651.467 648 652 646.533 652 645.2C652 640.933 667.733 614.4 674.533 607.067C676.133 605.467 677.333 603.467 677.333 602.667C677.333 602 678 601.333 678.667 601.333C679.467 601.333 683.2 598.133 687.067 594.267C692.8 588.4 700.133 582.4 712.667 572.933C713.003 572.691 713.634 572.234 714.48 571.621L714.482 571.62C719.683 567.855 733 558.216 735.867 556.267C754.667 543.067 784.533 514.4 797.467 497.333C799.467 494.8 802.933 490.533 805.2 488C807.467 485.467 809.333 482.533 809.333 481.6C809.333 480.8 809.733 480 810.4 480C811.333 480 812.667 477.867 820.4 464C822.533 460 824.8 456.4 825.2 456C828.267 453.467 832.533 440.4 832.4 433.6C832.4 423.067 829.6 382.933 828.533 377.6C827.733 373.733 825.333 371.467 825.333 374.8C825.333 376.4 810.667 407.067 809.467 408C807.867 409.2 793.333 433.333 793.333 434.667C793.333 435.467 792.4 436.4 791.333 436.8C790.267 437.333 789.333 438.267 789.333 439.067C789.333 441.733 755.467 474 749.333 477.067C747.667 477.933 745.5 479.067 743.333 480.2C741.167 481.333 739 482.467 737.333 483.333C732 486 725.733 488.8 718 491.867C712.133 494.267 702.8 496.267 694 497.2C688.933 497.733 683.6 498.667 682.267 499.333C679.333 500.533 652.4 497.867 643.333 495.333C640.892 494.7 637.041 493.638 633.442 492.646L633.44 492.645C631.733 492.175 630.082 491.719 628.667 491.333C624.267 490.133 619.6 488.667 618.4 487.867C617.067 487.2 615.2 486.667 614.267 486.667C611.733 486.667 592 476.133 586.533 471.867C583.867 469.733 581.067 468 580.4 468C579.867 468 577.733 466.533 575.733 464.667C573.733 462.8 571.733 461.333 571.2 461.333C570.133 461.333 566.133 457.733 554.667 446.667C549.867 441.867 544 436.8 541.867 435.2C536 431.067 524 425.733 518 424.667C515.067 424.133 511.867 422.933 510.8 422.133C509.6 421.2 502 420.667 490.133 420.667C472.667 420.667 470.667 420.933 461.333 424.533C455.867 426.667 450.4 429.2 449.2 430.133C448.133 431.2 446.533 432 445.733 432C444.933 432 444 432.933 443.467 434C443.067 435.067 442.133 436 441.333 436C439.867 436 438.667 436.8 432 442.667C430.581 443.991 427.955 446.254 425.454 448.41C425.452 448.411 425.45 448.413 425.448 448.415C424.425 449.296 423.423 450.16 422.533 450.933C419.333 453.6 414.533 457.733 412 460C402.267 468.8 391.6 476 380.8 481.2C374.533 484.267 368.933 486.667 368.267 486.667C367.6 486.667 365.2 487.6 363.2 488.667C361.067 489.733 358.267 490.667 357.067 490.667C355.867 490.667 354.533 491.2 354.133 491.867C353.733 492.533 351.467 493.333 349.067 493.733C346.667 494.133 342 495.067 338.667 495.867C326.267 498.667 309.467 500.4 302.533 499.467C301.9 499.382 301.197 499.288 300.444 499.187C300.102 499.141 299.749 499.093 299.388 499.044C299.385 499.044 299.382 499.044 299.379 499.043C295.521 498.524 290.717 497.877 287.333 497.467C282.933 496.933 277.2 495.733 274.667 494.8C273.91 494.561 273 494.263 272.027 493.944L272.023 493.943C269.738 493.195 267.109 492.334 265.333 491.867C257.2 489.333 235.6 478.667 226.667 472.533C210.667 461.867 187.2 433.867 173.867 410" fill="#00F3FF"/>
<path d="M502.8 539.333C506 540.4 510.533 542.933 512.667 544.8C519.467 550.533 545.733 576.8 550.267 582.267C555.2 588.267 556.4 589.467 570 602.667C575.733 608.133 581.867 615.067 583.867 618C587.2 623.067 587.333 624.133 587.2 639.467C587.067 652.133 586.533 656.4 584.8 658.8C583.6 660.533 582.667 664.533 582.667 668C582.667 671.333 582.133 674.667 581.467 675.333C580.8 676.133 579.867 679.333 579.333 682.667C578.933 686 578 690.8 577.333 693.333C576.533 695.867 576 700.267 576 703.067C576 705.867 575.2 711.867 574.133 716.4C573.067 720.933 571.2 730 570 736.667C568.8 743.2 567.2 750.667 566.533 752.933C565.733 755.333 564.667 760.133 564 763.6C563.333 767.2 561.867 775.067 560.667 781.333C559.467 787.6 558 796.533 557.333 801.333C556.667 806.133 555.067 814.133 554 819.333C552.933 824.4 551.333 832.533 550.533 837.333C549.733 842.133 548.533 847.067 547.867 848.267C547.2 849.6 546.667 852.533 546.533 854.933C546.533 857.333 545.467 862.267 544.133 865.867C541.867 872.133 541.467 872.667 532.533 876.4C527.467 878.533 520 881.333 516 882.4C505.867 885.2 480.133 885.733 473.067 883.2C470.133 882.133 466.267 881.333 464.533 881.333C462.667 881.333 460.267 880.8 458.933 880.133C457.733 879.467 452.933 877.6 448.267 876C443.733 874.267 439.6 872.4 439.067 871.6C438.267 870.267 434.533 852.533 432 838C431.467 834.267 430 826.533 428.8 820.667C427.6 814.8 426 805.2 425.2 799.333C424.4 793.467 423.2 787.6 422.533 786.4C421.867 785.067 421.333 781.467 421.333 778.4C421.333 775.2 420.667 770.533 420 768C418.667 763.467 415.733 750.4 413.333 738.667C406.267 703.733 403.6 688.667 403.067 681.333C402.667 676.533 402 672 401.333 671.333C400.8 670.533 399.867 666.933 399.467 663.333C398.933 659.6 397.6 653.467 396.4 649.467C395.2 645.067 394.533 638.8 394.933 632.667C395.333 624.667 396 622.267 399.067 618.267C401.067 615.6 402.667 613.2 402.667 612.667C402.667 611.6 414.933 600 416.267 600C416.8 600 417.333 599.467 417.333 598.667C417.333 598 429.733 584.933 445.067 569.6C467.333 547.2 473.867 541.467 478.667 539.733C486.4 536.933 495.333 536.8 502.8 539.333Z" fill="#00F3FF"/>
<path d="M162.267 388.667C164 392.133 168.267 399.867 173.867 410C187.2 433.867 210.667 461.867 226.667 472.533C235.6 478.667 257.2 489.333 265.333 491.867C267.109 492.334 269.738 493.195 272.023 493.943L272.027 493.944C273 494.263 273.91 494.561 274.667 494.8C277.2 495.733 282.933 496.933 287.333 497.467C290.717 497.877 295.521 498.524 299.379 499.043L299.388 499.044L300.444 499.187C301.197 499.288 301.9 499.382 302.533 499.467C309.467 500.4 326.267 498.667 338.667 495.867C342 495.067 346.667 494.133 349.067 493.733C351.467 493.333 353.733 492.533 354.133 491.867C354.533 491.2 355.867 490.667 357.067 490.667C358.267 490.667 361.067 489.733 363.2 488.667C365.2 487.6 367.6 486.667 368.267 486.667C368.933 486.667 374.533 484.267 380.8 481.2C391.6 476 402.267 468.8 412 460C414.533 457.733 419.333 453.6 422.533 450.933C423.423 450.16 424.425 449.296 425.448 448.415L425.454 448.41C427.955 446.254 430.581 443.991 432 442.667C438.667 436.8 439.867 436 441.333 436C442.133 436 443.067 435.067 443.467 434C444 432.933 444.933 432 445.733 432C446.533 432 448.133 431.2 449.2 430.133C450.4 429.2 455.867 426.667 461.333 424.533C470.667 420.933 472.667 420.667 490.133 420.667C502 420.667 509.6 421.2 510.8 422.133C511.867 422.933 515.067 424.133 518 424.667C524 425.733 536 431.067 541.867 435.2C544 436.8 549.867 441.867 554.667 446.667C566.133 457.733 570.133 461.333 571.2 461.333C571.733 461.333 573.733 462.8 575.733 464.667C577.733 466.533 579.867 468 580.4 468C581.067 468 583.867 469.733 586.533 471.867C592 476.133 611.733 486.667 614.267 486.667C615.2 486.667 617.067 487.2 618.4 487.867C619.6 488.667 624.267 490.133 628.667 491.333C630.082 491.719 631.733 492.175 633.44 492.645L633.442 492.646C637.041 493.638 640.892 494.7 643.333 495.333C652.4 497.867 679.333 500.533 682.267 499.333C683.6 498.667 688.933 497.733 694 497.2C702.8 496.267 712.133 494.267 718 491.867C725.733 488.8 732 486 737.333 483.333C739 482.467 741.167 481.333 743.333 480.2C745.5 479.067 747.667 477.933 749.333 477.067C755.467 474 789.333 441.733 789.333 439.067C789.333 438.267 790.267 437.333 791.333 436.8C792.4 436.4 793.333 435.467 793.333 434.667C793.333 433.333 807.867 409.2 809.467 408C810.667 407.067 825.333 376.4 825.333 374.8C825.333 371.467 827.733 373.733 828.533 377.6C829.6 382.933 832.4 423.067 832.4 433.6C832.533 440.4 828.267 453.467 825.2 456C824.8 456.4 822.533 460 820.4 464C812.667 477.867 811.333 480 810.4 480C809.733 480 809.333 480.8 809.333 481.6C809.333 482.533 807.467 485.467 805.2 488C802.933 490.533 799.467 494.8 797.467 497.333C784.533 514.4 754.667 543.067 735.867 556.267C733 558.216 719.683 567.855 714.482 571.62L714.48 571.621C713.634 572.234 713.003 572.691 712.667 572.933C700.133 582.4 692.8 588.4 687.067 594.267C683.2 598.133 679.467 601.333 678.667 601.333C678 601.333 677.333 602 677.333 602.667C677.333 603.467 676.133 605.467 674.533 607.067C667.733 614.4 652 640.933 652 645.2C652 646.533 651.467 648 650.8 648.8C650.133 649.467 648.667 653.6 647.333 658C646.611 660.649 645.647 663.975 644.79 666.93C644.224 668.883 643.705 670.674 643.333 672C643.224 672.391 643.111 672.792 642.996 673.2L642.979 673.262L642.978 673.265C642.118 676.319 641.167 679.697 640.933 681.333C640.533 683.2 638.933 689.467 637.333 695.333C634.267 706.933 632.533 725.2 634.267 727.467C636.267 730.133 652.667 739.2 662.533 743.067C668.133 745.333 668.267 745.333 674.667 741.867C678.267 739.867 685.867 733.733 691.6 728.133C703.467 716.4 705.867 713.733 714 702.267C715.884 699.705 717.682 697.185 718.987 695.358L718.991 695.353C719.992 693.95 720.702 692.956 720.933 692.667C726.267 685.467 730.667 678.4 732.8 674C734.133 671.067 735.467 668.4 735.867 668C737.067 666.933 748.8 642.667 751.333 636C756.933 621.467 760 611.6 760 608.267C760 606.667 760.533 605.2 761.2 604.8C761.867 604.267 762.8 601.467 763.333 598.267C763.867 595.2 764.8 592 765.333 591.333C765.867 590.533 767.067 585.467 768 580C768.933 574.533 770.267 568.667 771.2 567.067C772 565.467 777.467 559.2 783.333 553.067C789.2 546.933 796.133 539.333 798.667 536.133L799.252 535.425C801.747 532.403 805.082 528.364 806.933 526.267C807.255 525.881 807.597 525.471 807.951 525.047L807.954 525.043C809.801 522.83 811.97 520.232 813.2 518.667C816.8 514 818 516.133 816.133 524.267C815.2 528.133 813.6 535.2 812.533 540C810.8 547.867 809.333 554.8 805.333 575.333C803.733 583.333 800.933 595.867 797.867 608.667C795.2 620.267 792.133 635.2 791.2 641.333C790.8 643.867 789.6 647.867 788.533 650.267C787.467 652.533 786.667 655.867 786.667 657.733C786.667 659.6 786.133 661.467 785.467 661.867C784.8 662.4 783.867 665.733 783.333 669.333C782.8 672.933 781.867 676.267 781.2 676.8C780.533 677.2 780 679.2 780 681.2C780 683.2 779.067 686 778 687.467C776.933 688.8 776 690.8 776 691.6C776 692.533 774.933 694.533 773.733 696C772.4 697.467 771.333 699.333 771.333 700C771.333 700.667 767.6 706.133 763.067 712.267C751.067 728.4 632.4 845.067 615.333 857.6C604.4 865.6 593.067 872.8 589.6 873.867C588 874.4 586.667 875.333 586.667 876C586.667 876.533 585.6 877.467 584.4 877.867C583.067 878.267 580.533 879.6 578.8 880.667C574.267 883.2 573.467 882.267 574.933 875.733C575.6 872.533 576.667 865.467 577.333 860C578.4 849.867 580.8 837.867 584.8 820.667C586 815.467 587.6 807.733 588.267 803.333C589.067 798.933 590.133 794.133 590.667 792.667C591.867 789.467 594.8 770.4 595.6 760C596 756 596.667 752 597.333 751.333C597.867 750.533 598.667 746.667 599.2 742.667C599.733 738.667 600.933 731.733 602 727.333C602.227 726.265 602.493 725.032 602.777 723.713C603.663 719.602 604.728 714.665 605.333 711.333C606.133 706.933 607.467 700.933 608.267 698C609.6 692.533 610.667 686.8 613.333 669.333C614.133 663.867 615.333 657.467 616.133 655.2C617.733 649.6 617.733 617.333 616 617.333C615.333 617.333 614.667 616 614.667 614.533C614.667 608.133 597.6 585.067 582 570.667C576.933 565.867 567.6 556.667 561.333 550C540.8 528.267 530.533 519.067 522.667 515.067C520.133 513.733 517.733 512.267 517.333 511.867C515.6 509.733 500.667 506.667 492 506.667C482.933 506.667 470.133 509.2 465.067 512C463.733 512.8 461.733 513.333 460.667 513.333C459.6 513.333 458.667 513.733 458.667 514.267C458.667 514.933 456.533 516.667 454.133 518.4C449.6 521.467 431.867 538.667 414.933 556.533C410.267 561.333 406.267 565.333 406 565.333C404.267 565.333 378.667 593.2 378.667 595.067C378.667 595.6 377.333 597.467 375.733 599.333C370 606 364 624.8 364 636.533C364 640.933 364.933 648.267 366 652.667C367.067 657.067 367.867 662.667 368 665.067C368 667.467 368.533 670.667 369.333 672C370 673.333 371.333 678.533 372 683.6C372.8 688.533 374.267 697.467 375.467 703.333C375.844 705.411 376.239 707.572 376.609 709.597L376.611 709.611C377.284 713.3 377.875 716.538 378.133 718L378.188 718.293C378.624 720.621 379.646 726.072 380.667 730.667C384.533 748.667 385.2 752.933 386.133 762.4C386.533 767.6 387.467 772.4 388.133 772.8C388.8 773.2 389.333 775.867 389.333 778.667C389.333 781.467 390 785.467 390.933 787.6C391.733 789.6 392.8 794.267 393.467 798C394 801.6 395.467 809.467 396.667 815.333C399.2 827.333 401.867 842.667 404.133 857.333C404.933 862.8 406.133 868.267 406.8 869.6C407.467 870.8 408 874.267 408 877.333C408 882.4 407.733 882.8 405.067 881.867C402.4 881.067 400.933 880.133 396.667 876.4C395.733 875.467 394.4 874.667 393.733 874.667C392.667 874.667 366.267 857.333 362.667 854.4C361.6 853.467 358.667 850.933 356.133 848.933C340.933 836.8 226.533 723.333 218.533 712.533C212.4 704.133 202.667 685.867 202.667 682.667C202.667 681.467 201.867 679.467 200.8 678C199.867 676.533 198.667 672.667 198.267 669.333C197.333 662.133 194.667 650.667 190.933 638C187.867 627.6 181.2 597.867 180.4 590.667C180.133 588.133 179.333 584.8 178.667 583.333C178 581.867 177.2 577.067 176.667 572.667C176.267 568.267 175.333 562.8 174.667 560.667C172.4 553.467 169.6 542.133 167.333 531.333C166.133 525.467 164.933 519.333 164.533 517.6C163.6 513.067 166.933 514.133 170.933 519.733C172.8 522.4 177.467 528.267 181.333 532.667C193.238 546.344 202.375 556.533 206.233 560.834L206.8 561.467C210.533 565.2 214.667 575.6 214.667 580.8C214.667 582.533 215.467 586.533 216.533 589.6C217.467 592.8 219.333 600.133 220.667 606C222 611.867 223.6 617.2 224.133 617.867C224.8 618.667 225.333 620.8 225.333 622.667C225.333 624.533 226.267 627.333 227.333 628.8C228.4 630.133 229.333 632 229.333 632.933C229.333 635.867 246 668.933 251.6 677.067C254.8 681.867 257.067 685.6 258.133 688C260.533 692.933 281.067 719.6 286 724.133C293.733 731.2 305.467 740.667 308.933 742.4C310.533 743.333 313.2 744 314.8 744C319.467 744 347.6 729.2 349.867 725.467C350.4 724.8 350.133 721.6 349.333 718.4C348.667 715.2 346.8 706.667 345.467 699.333C344 692 341.867 682.4 340.667 678C339.467 673.6 338 667.733 337.467 664.933C336.8 662.133 335.6 659.067 334.8 658.267C334 657.467 333.333 655.467 333.333 653.867C333.333 652.133 329.467 643.333 324.8 634.267C308.667 602.8 305.2 599.2 257.333 564.133C251.867 560.133 247.067 556.533 246.667 556C246.267 555.467 245.067 554.533 243.733 553.867C242.533 553.2 239.2 550.4 236.133 547.6C233.2 544.933 230.533 542.667 230.133 542.667C229.733 542.667 226.8 540.133 223.467 536.933C220.133 533.867 214.267 528.667 210.4 525.333C204.667 520.533 196 511.467 186 499.6C181.733 494.533 177.333 488 177.333 486.667C177.333 485.867 176.4 484.933 175.333 484.533C174.267 484.133 172.133 481.2 170.667 478.267C167.333 471.6 164.933 467.6 163.867 466.667C162.667 465.733 156.8 455.333 152 446C147.867 437.6 147.067 431.067 149.2 422.667C149.867 420.133 150.8 412.4 151.333 405.467C151.733 398.667 152.8 391.6 153.467 389.733C154.133 388 154.667 383.333 154.667 379.6V372.667L157.467 378.667C158.933 382 161.067 386.4 162.267 388.667Z" fill="#00F3FF"/>
<path d="M696.133 162.267C696.533 200.267 697.067 211.867 698.667 217.6C699.6 221.2 700.8 224 701.333 224C701.867 224 702.8 225.467 703.2 227.333C703.733 229.2 704.667 230.667 705.333 230.667C706.133 230.667 706.667 231.333 706.667 232.133C706.667 235.067 721.6 249.067 727.067 251.333C730.133 252.533 733.733 254.133 735.067 254.8C736.267 255.467 741.867 256.4 747.333 256.8C757.733 257.6 770.133 255.067 774.8 251.067C775.867 250.133 777.467 249.333 778.267 249.333C781.467 249.333 800 229.467 800 226.133C800 225.2 800.933 223.6 802 222.667C803.067 221.733 804 219.067 804 216.533C804 214.133 804.667 211.733 805.333 211.333C806.133 210.8 806.667 198.667 806.667 179.2V148H932H1057.2L1057.73 178.933C1058 197.333 1058.8 212.267 1059.73 215.6C1061.33 221.333 1066.27 231.467 1069.47 235.333C1073.73 240.667 1083.2 248.933 1087.07 250.933C1089.47 252 1093.07 253.733 1095.2 254.8C1100.53 257.333 1124.8 257.333 1130.13 254.8C1140.4 250 1143.6 247.733 1150.27 241.2C1158.67 232.933 1164.67 221.2 1166.4 210C1167.07 205.6 1167.47 191.2 1167.07 178C1166.8 164.8 1166.93 152.667 1167.33 151.067L1168 148H1202.53C1249.87 148 1254.4 149.067 1267.87 163.067C1275.6 171.2 1276.93 173.067 1280.93 182C1283.2 187.067 1283.33 200.533 1283.33 467.2C1283.33 690 1282.93 747.2 1281.73 747.733C1280.8 748 1280 749.2 1280 750.267C1280 755.067 1263.07 776 1259.2 776C1258.13 776 1257.33 776.533 1257.33 777.2C1257.33 777.733 1254.27 779.6 1250.53 781.2L1243.6 784H994.533C793.6 784 745.333 783.6 745.333 782.267C745.333 781.333 747.067 779.6 749.2 778.267C751.333 777.067 754.933 773.867 757.2 771.333C759.467 768.8 761.733 766.667 762.267 766.667C762.8 766.533 765.733 763.2 768.667 759.067C771.6 754.933 775.867 749.867 778 747.733L782 744H1002.13C1244.93 744 1226.93 744.667 1236.13 735.467C1240 731.6 1241.2 729.067 1242 723.6C1243.2 714.8 1243.87 329.467 1242.67 320.933C1242.13 317.467 1241.33 314.267 1240.93 313.867C1240.53 313.467 1101.47 313.2 931.733 313.2C644.8 313.333 623.2 313.467 621.733 315.6C620.4 317.333 620 333.333 620 384.933C620 425.333 619.467 452 618.8 452C618.133 452 616.667 451.067 615.467 450C614.4 448.933 612.8 448 612 448C610.533 448 601.867 441.733 597.6 437.733C596.533 436.8 594.533 435.333 592.933 434.4C590.267 433.067 587.733 431.067 581.2 424.933C578.8 422.8 578.667 418.933 578.667 308.667C578.667 193.867 579.067 183.6 583.467 178.533C584.533 177.467 585.333 175.733 585.333 174.933C585.333 174 586 173.333 586.667 173.333C587.467 173.333 588 172.533 588 171.6C588.133 168.933 598.933 157.733 604.667 154.533C614.133 149.2 622.533 148.267 660.4 148.133L696 148L696.133 162.267Z" fill="#00F3FF"/>
<path d="M758.667 76.9333C767.467 80.1333 772.667 84.4 775.867 91.2C778.533 97.0667 778.667 98.9333 778.667 149.2C778.667 177.733 778.133 204.133 777.333 207.867C774.8 221.6 765.467 229.333 751.867 229.333C740.933 229.333 733.2 225.067 727.2 215.733L724 210.667V152.933C724 101.2 724.267 94.5333 726.267 90.5333C729.2 84.8 732.4 82 740.667 78C748.667 74.1333 750.8 74 758.667 76.9333Z" fill="#00F3FF"/>
<path d="M1122.93 77.3333C1128.93 79.8666 1137.33 88.8 1137.33 92.5333C1137.33 93.6 1138 94.9333 1138.67 95.3333C1139.47 95.8666 1140 116.533 1140 152.8C1140 205.867 1139.87 209.733 1137.47 214.4C1132.53 224.133 1123.6 229.333 1112.27 229.333C1100.13 229.333 1093.47 225.067 1088.13 213.867C1085.73 208.8 1085.47 204.933 1085.2 153.867C1084.8 96.4 1085.07 93.0666 1090.93 85.3333C1094.4 80.8 1106.27 74.8 1112.13 74.6667C1114.8 74.6667 1119.6 75.8666 1122.93 77.3333Z" fill="#00F3FF"/>
<path fill-rule="evenodd" clip-rule="evenodd" d="M1101.33 437.2C1099.87 435.333 1085.2 429.467 1077.2 427.467C1069.47 425.6 1046.93 424.133 1038.67 425.067C1027.6 426.133 1005.47 434 996 440C994.933 440.8 993.067 441.733 992 442.267C990.933 442.8 989.733 443.467 989.333 443.867C988.933 444.4 986 446.4 982.8 448.533C979.6 450.533 967.067 462 955.067 473.867C943.067 485.6 932.667 495.6 931.867 495.867C931.067 496.133 921.6 487.333 910.8 476.533C892.133 457.6 881.467 447.867 878.133 446.8C877.333 446.533 876 445.6 875.2 444.667C874.533 443.6 872.4 442.533 870.533 442C867.333 441.2 867.2 441.467 864.133 456.267C862.533 464.533 860.533 472 859.733 472.933C857.467 475.733 858.133 482.133 861.2 485.2C862.667 486.667 864.267 488 864.667 488C865.6 488 893.467 516.267 899.067 522.667L902.667 526.933L900 531.2C898.667 533.467 889.467 542.933 879.733 552.267C861.732 569.388 857.298 573.659 852.368 577.248C850.579 578.55 848.725 579.763 846.133 581.467C838.667 586.4 837.2 587.867 836.667 592C836.497 592.807 836.3 593.83 836.085 594.949C835.624 597.343 835.079 600.177 834.533 602.267C833.867 605.333 833.333 610.267 833.333 613.2C833.333 616.133 832.4 619.333 831.333 620.533C830.267 621.6 829.333 624.267 829.333 626.4C829.333 630.267 829.467 630.4 833.733 629.333C839.867 627.867 853.6 622.533 856.667 620.533C858.133 619.467 860 618.667 861.067 618.667C862 618.667 864.8 617.2 867.2 615.333C869.6 613.467 872 612 872.667 612C873.733 612 882.667 605.067 888.133 600C890.133 598.133 897.6 591.2 904.667 584.667C911.733 578 918.533 571.067 919.733 568.933C920.933 566.933 922.667 565.333 923.467 565.333C924.4 565.333 925.6 564.133 926 562.667C926.533 560.933 928 560 930.267 560C932.933 560 938.133 564.533 953.2 579.733C972.4 599.2 990.8 613.333 1006 620.533C1008.93 621.867 1012.8 623.733 1014.67 624.667C1023.07 628.8 1031.73 630 1052 630C1072.4 630 1079.87 628.933 1088.4 624.533C1090.53 623.467 1093.07 622.667 1094 622.667C1094.93 622.667 1096 622.267 1096.27 621.6C1096.53 621.067 1100.27 618.267 1104.67 615.333C1114.67 608.667 1117.87 606 1124.27 599.333C1132.27 590.8 1133.33 589.467 1133.33 587.467C1133.33 586.4 1133.87 585.067 1134.67 584.667C1135.73 584 1137.6 580.533 1140.53 573.333C1140.93 572.267 1142.8 568.667 1144.67 565.467C1146.53 562.267 1148 557.733 1148 555.333C1148 553.067 1148.67 550.533 1149.47 549.733C1153.87 545.333 1151.47 505.067 1146 492.667C1139.87 478.4 1133.47 466.4 1131.73 465.6C1131.07 465.333 1130.67 464.267 1130.67 463.333C1130.67 461.2 1111.07 442.667 1105.87 440C1103.73 438.933 1101.73 437.6 1101.33 437.2ZM1069.47 464C1035.4 455.138 1016.4 459.723 982.8 495.867L955.067 536.5C958.108 539.187 961.018 541.797 963.833 544.321C993.654 571.065 1012.83 588.264 1065.5 587.467C1094.88 581.472 1105.26 570.202 1116 540C1116.25 500.224 1112.58 480.013 1069.47 464Z" fill="#00F3FF"/>
<path fill-rule="evenodd" clip-rule="evenodd" d="M328.133 87.8666C328.267 89.0666 328.4 98.4 328.533 108.667L328.667 127.333L332 127.733C334.667 128 337.733 125.867 346 118C358.667 106 363.2 103.067 366.133 105.467C371.733 110.133 371.067 114.933 364.133 121.067C350 133.6 332.8 150.533 331.333 153.333C330.4 155.2 329.333 161.733 328.8 167.867C328.133 177.333 328.267 179.467 330.133 181.467C333.2 184.933 334.8 184.667 339.467 180.133C344.8 174.933 358.667 165.333 360.933 165.333C361.867 165.333 362.667 164.667 362.667 163.867C362.667 163.067 364.933 162.667 368.4 162.933L374 163.333L373.867 178C373.867 186 373.333 195.733 372.8 199.467C372 204.133 372.133 206.533 373.2 207.2C374.667 208.133 384.8 203.2 394.267 196.8L394.559 196.606L394.779 196.459L394.781 196.458C396.297 195.451 397.385 194.728 398.267 193.808C400.507 191.473 401.421 187.865 404.655 175.1L404.933 174C406 169.6 407.733 163.6 408.8 160.667C409.867 157.6 410.667 152.667 410.667 149.6C410.667 146.533 411.333 144 412 144C412.8 144 413.333 142.933 413.333 141.6C413.333 138.933 415.733 136 418 136C418.933 136 420.933 137.2 422.667 138.667C424.933 140.667 425.467 142 424.8 144.933C424.267 147.067 423.333 152.533 422.667 157.333C422 162.133 420.933 167.733 420.133 169.733C415.467 181.733 420.667 182.8 435.467 172.933C438.533 170.933 441.733 169.333 442.533 169.333C443.333 169.333 444 168.8 444 168.267C444 166.667 454.4 162.267 458.267 162.267C462.133 162.267 465.2 166.133 464.267 169.6C464 171.067 461.2 173.867 458.133 175.733C455.2 177.733 452.533 179.733 452.267 180.267C452 180.933 450.8 181.333 449.733 181.333C448.667 181.333 445.067 183.067 441.733 185.333C438.533 187.467 435.6 189.333 435.333 189.333C433.467 189.333 428.267 195.2 428.8 196.667C429.733 198.933 434.533 200.933 441.867 202C445.2 202.533 448.4 203.467 448.8 204.133C449.2 204.8 451.467 205.333 453.867 205.333C456.4 205.333 459.067 206.267 460 207.333C460.933 208.4 462.533 209.333 463.467 209.333C465.867 209.333 467.467 215.867 465.733 218.533C464.8 220 462.667 220.667 459.2 220.533C453.467 220.267 440.8 217.2 439.2 215.6C438.667 215.067 436.8 214.667 434.933 214.667C431.733 214.667 420.133 211.333 415.733 209.2C411.2 206.933 406.133 208 393.867 214.133C377.2 222.267 377.067 224.267 392.4 230.533C415.067 239.867 419.867 242.4 420.8 245.867C421.6 249.2 418.133 254.667 415.2 254.667C414.267 254.667 411.867 255.467 409.733 256.533C399.867 261.467 391.2 265.333 389.867 265.333C389.067 265.333 386.667 266.8 384.667 268.533C381.333 271.467 381.067 272.133 382.667 274C385.6 277.6 405.867 286.667 410.8 286.667C413.333 286.667 417.067 285.733 419.067 284.667C421.067 283.6 424.8 282.4 427.467 281.867C430 281.467 432.4 280.533 432.8 279.867C433.2 279.2 435.467 278.667 437.733 278.667C440.133 278.667 443.733 277.733 445.733 276.667C451.067 273.867 463.733 273.467 465.333 276C466.133 277.067 466.667 278.667 466.667 279.467C466.667 281.867 462.267 286.267 458.667 287.2C456.8 287.733 454.133 288.667 452.667 289.333C451.2 289.867 445.867 291.733 440.8 293.2C435.733 294.8 431.067 296.4 430.533 296.8C428.8 297.867 431.067 302.8 433.867 304.133C436.933 305.467 441.6 308.267 442.667 309.467C443.067 309.867 447.2 312.133 452 314.533C456.8 317.067 461.733 320.133 463.067 321.6C466.267 324.8 465.2 329.733 461.067 331.6C457.067 333.333 452 331.6 442.4 325.2C438.133 322.267 434.133 320 433.467 320C432.8 320 431.6 319.2 430.8 318.133C428.4 315.2 421.2 314 419.867 316.133C418 319.067 418.4 326 420.667 330.133C421.733 332.267 422.667 336 422.667 338.4C422.667 340.8 423.333 345.467 424.133 348.667C426 355.867 424 358.8 418.133 357.733C414 356.933 412.133 353.333 410.533 343.333C409.6 336.667 406.133 325.333 403.867 321.067C403.2 319.733 402.667 316.8 402.667 314.4C402.667 307.2 397.6 300.267 389.333 295.733C385.333 293.6 380.667 290.933 379.067 289.867C377.467 288.8 375.067 288 373.867 288C371.467 288 371.6 293.333 374.667 317.067C376.133 328.4 376.133 329.6 374 332C370.133 336.267 364.8 335.333 356.4 329.2C352.4 326.133 348 322.667 346.8 321.467C342.4 317.333 335.467 312 334.267 312C333.733 312 332 312.667 330.533 313.467C328.133 314.667 328 315.733 328.667 325.067C330 340.4 331.067 342.533 342.667 354C348.533 359.6 353.333 364.667 353.333 365.2C353.333 365.6 355.067 367.333 357.067 368.933C368.533 377.867 371.6 382.533 369.067 386.533C368.133 388 366.533 389.467 365.333 389.733C361.067 390.8 358.4 389.067 342.667 374.133C336 367.733 330.267 366.133 328.8 370.133C328.4 371.333 328 380.533 328 390.667C328 408.133 327.867 409.333 325.2 410.667C323.733 411.6 320.933 411.867 319.2 411.467C316 410.667 316 410.533 316 392.8C316 371.733 315.2 366.667 312 366.667C310.8 366.667 304.4 371.733 297.867 378C288.133 387.333 285.333 389.333 281.867 389.333C273.067 389.333 272.667 382.133 280.8 374.533C283.6 372 288.533 367.333 292 364C295.333 360.667 301.733 354.533 306.267 350.4L314.4 342.8L315.333 328.667C316.133 316.8 316 314.133 314.267 312.4C312.533 310.667 311.867 310.667 308.133 312.533C305.867 313.733 303.2 315.867 302.267 317.333C301.467 318.8 300.133 320 299.333 320C298.667 320 296 321.867 293.467 324C291.067 326.267 288.533 328 287.867 328C287.333 328 285.2 329.467 283.2 331.333C278.8 335.333 275.867 335.6 272.667 332C270.533 329.6 270.4 327.733 271.333 312.4C272.4 294.4 272.4 289.333 271.333 288.267C270.267 287.2 250.8 297.467 246.533 301.333C245.333 302.4 244 304.8 243.6 306.667C243.067 308.533 241.734 313.864 240.534 318.663L240.533 318.667C240.142 320.426 239.662 322.508 239.17 324.637C238.321 328.316 237.44 332.133 236.933 334.667C236 338.667 234.933 342.667 234.4 343.333C234 344.133 233.2 346.933 232.667 349.6C231.333 356.4 227.733 359.6 223.333 357.6C220.8 356.4 220 355.067 220 351.733C220 347.333 223.067 330.933 225.467 323.2C227.067 317.867 226.933 315.067 225.2 313.867C223.6 312.933 214.667 317.2 214.667 318.933C214.667 319.6 214.133 320 213.333 320C212.667 320 208.267 322.267 203.733 325.067C190.533 333.067 187.333 334.133 183.333 331.467C181.067 330 180 328 180 325.333C180 322 180.933 320.933 186.4 318.267C198 312.267 202 310 202.4 308.933C202.667 308.4 204 308 205.467 308C206.933 308 208.4 307.067 208.8 306C209.333 304.933 210.4 304 211.333 304C214 304 215.333 298.667 213.2 296.667C212.133 295.733 207.467 294 202.667 292.8C188.4 289.067 182.667 286.4 180 282.667C178.686 280.799 178.053 279.9 178.121 279.058C178.184 278.277 178.85 277.545 180.133 276.133C183.067 272.933 187.067 273.067 198.4 276.8C201.467 277.867 205.333 278.667 206.667 278.667C208.133 278.667 210.4 279.2 211.733 280C215.6 282.133 232 286.667 236.133 286.667C238.267 286.667 242.267 285.467 244.933 284C247.733 282.533 250.667 281.333 251.6 281.333C252.533 281.333 253.333 280.933 253.333 280.267C253.333 279.733 255.2 278.533 257.467 277.467C259.733 276.533 261.867 274.8 262.267 273.733C263.067 271.6 256.667 265.467 253.333 265.333C252.267 265.333 250.133 264.4 248.8 263.333C247.333 262.267 245.067 261.333 243.733 261.333C242.4 261.333 241.333 260.8 241.333 260.267C241.333 259.6 239.067 258.4 236.133 257.6C221.067 253.067 219.733 241.6 234 238.133C236.133 237.6 238.267 236.533 238.667 235.867C239.2 235.2 241.067 234.533 243.067 234.4C245.067 234.267 246.667 233.733 246.667 233.2C246.667 232.667 250.267 230.933 254.667 229.333C259.067 227.733 263.067 225.733 263.6 224.933C264.8 223.067 256.667 216.4 249.333 213.2C246 211.733 242.267 210 241.067 209.333C238.133 207.733 232.667 207.6 229.6 209.2C228.4 209.867 223.733 211.333 219.333 212.667C213.194 214.466 208.231 216.013 201.51 218.109L201.508 218.11L201.502 218.112C199.759 218.655 197.897 219.235 195.867 219.867C183.067 223.867 173.467 219.2 179.067 211.867C181.2 209.067 189.867 205.333 194.133 205.333C195.733 205.333 197.6 204.667 198 204C198.4 203.2 199.867 202.667 201.067 202.667C205.2 202.667 213.2 199.867 215.333 197.733C217.333 195.867 217.067 195.333 213.067 191.867C210.667 189.867 207.867 188.133 207.067 188C206.133 188 205.333 187.333 205.333 186.667C205.333 185.867 204.267 185.333 202.8 185.333C201.467 185.333 199.6 184.4 198.667 183.333C197.733 182.267 195.867 181.333 194.533 181.333C193.067 181.333 192 180.8 192 180.133C192 179.467 190.933 178.533 189.733 178.133C181.467 174.933 178 170.133 180.933 165.467C182.4 163.2 191.867 161.733 193.2 163.6C194.267 165.067 198.8 167.867 201.733 168.8C202.933 169.333 204 170.133 204 170.8C204 171.467 206.667 173.2 210 174.667C213.333 176.133 216 177.867 216 178.533C216 179.067 218.133 180.267 220.8 181.067C226.267 182.667 227.6 181.2 226.133 174.933C225.6 172.933 224.667 168.267 224 164.667C223.333 160.933 222.133 155.867 221.467 153.333C219.333 146.667 219.733 140.533 222.133 138.533C229.067 132.8 232.4 138.133 236.133 160.667C236.8 165.067 238 169.867 238.533 171.333C239.2 172.8 240.933 178.4 242.533 183.867C242.716 184.49 242.895 185.103 243.069 185.7L243.069 185.701C244.424 190.339 245.497 194.015 245.733 194.133C246 194.4 251.2 197.6 257.333 201.2C272 210 272.667 209.6 271.467 191.2C270.933 183.733 270 175.867 269.467 173.733C268.133 169.2 270.8 163.2 274.667 162C276.933 161.333 285.067 164.133 288.667 166.933C288.947 167.167 289.733 167.808 290.865 168.732L290.874 168.74C292.978 170.456 296.271 173.144 299.733 176C309.067 183.733 313.6 185.6 315.333 182.533C315.867 181.867 315.867 174.933 315.333 167.2L314.4 153.2L305.067 143.867C300 138.8 295.6 134.667 295.333 134.667C295.067 134.667 290.4 130.267 284.8 124.933C273.067 113.6 271.733 108.533 279.733 106.133C283.733 104.8 289.2 108.4 300.667 119.867C305.733 125.067 310.933 129.333 312.267 129.333C315.333 129.333 316.533 120.267 315.467 104.667C314.4 90 315.2 85.6 319.067 85.0667C324 84.2667 328 85.6 328.133 87.8666ZM281.867 318.133V284.667L312.267 263.333L310 299.5L281.867 318.133ZM274.667 233.2L249.333 248.5L274.667 263.333L312 241L274.667 233.2ZM283.2 181.467V207.333L315.333 224.933L312 199.467L283.2 181.467ZM330.533 229.333L334.267 191.867L360.63 180.267L357.067 212.667L330.533 229.333ZM342.667 241L372.8 230.533L402.667 245.867L373.867 260.267L342.667 241ZM339.467 304.133L334.267 261.333L360.933 281.333L365.333 323.2L339.467 304.133Z" fill="#00F3FF"/>
</g>
<defs>
<clipPath id="clip0_2008_30">
<rect width="1420" height="965.333" fill="white"/>
</clipPath>
</defs>
</svg>
